<mxfile host="app.diagrams.net" modified="2024-05-10T19:25:17.807Z" agent="Mozilla/5.0 (Windows NT 10.0; Win64; x64) AppleWebKit/537.36 (KHTML, like Gecko) Chrome/124.0.0.0 Safari/537.36" etag="xvvmxwqUqorwD5CSd9GH" version="24.3.1" type="device">
  <diagram name="PÃ¡gina-1" id="Zpsk-huws3G5LKRI3ZW4">
    <mxGraphModel dx="1674" dy="738" grid="1" gridSize="10" guides="1" tooltips="1" connect="1" arrows="1" fold="1" page="1" pageScale="1" pageWidth="1169" pageHeight="827" math="0" shadow="0">
      <root>
        <mxCell id="0" />
        <mxCell id="1" parent="0" />
        <mxCell id="pViukagDU9DolODw0ecY-1" value="&lt;b&gt;AWS Cloud&lt;/b&gt;" style="points=[[0,0],[0.25,0],[0.5,0],[0.75,0],[1,0],[1,0.25],[1,0.5],[1,0.75],[1,1],[0.75,1],[0.5,1],[0.25,1],[0,1],[0,0.75],[0,0.5],[0,0.25]];outlineConnect=0;gradientColor=none;html=1;whiteSpace=wrap;fontSize=12;fontStyle=0;container=1;pointerEvents=0;collapsible=0;recursiveResize=0;shape=mxgraph.aws4.group;grIcon=mxgraph.aws4.group_aws_cloud_alt;strokeColor=#232F3E;fillColor=none;verticalAlign=top;align=left;spacingLeft=30;fontColor=#232F3E;dashed=0;" parent="1" vertex="1">
          <mxGeometry x="205" y="220" width="760" height="890" as="geometry" />
        </mxCell>
        <mxCell id="4uqwcMLx68ukezupchwL-3" value="&lt;b&gt;ECR&lt;/b&gt;" style="sketch=0;points=[[0,0,0],[0.25,0,0],[0.5,0,0],[0.75,0,0],[1,0,0],[0,1,0],[0.25,1,0],[0.5,1,0],[0.75,1,0],[1,1,0],[0,0.25,0],[0,0.5,0],[0,0.75,0],[1,0.25,0],[1,0.5,0],[1,0.75,0]];outlineConnect=0;fontColor=#232F3E;fillColor=#ED7100;strokeColor=#ffffff;dashed=0;verticalLabelPosition=bottom;verticalAlign=top;align=center;html=1;fontSize=12;fontStyle=0;aspect=fixed;shape=mxgraph.aws4.resourceIcon;resIcon=mxgraph.aws4.ecr;" vertex="1" parent="pViukagDU9DolODw0ecY-1">
          <mxGeometry x="351" y="794" width="58" height="58" as="geometry" />
        </mxCell>
        <mxCell id="pViukagDU9DolODw0ecY-2" value="&lt;b&gt;VPC (10.0.0.0/16)&lt;/b&gt;" style="points=[[0,0],[0.25,0],[0.5,0],[0.75,0],[1,0],[1,0.25],[1,0.5],[1,0.75],[1,1],[0.75,1],[0.5,1],[0.25,1],[0,1],[0,0.75],[0,0.5],[0,0.25]];outlineConnect=0;gradientColor=none;html=1;whiteSpace=wrap;fontSize=12;fontStyle=0;container=1;pointerEvents=0;collapsible=0;recursiveResize=0;shape=mxgraph.aws4.group;grIcon=mxgraph.aws4.group_vpc2;strokeColor=#8C4FFF;fillColor=none;verticalAlign=top;align=left;spacingLeft=30;fontColor=#AAB7B8;dashed=0;" parent="1" vertex="1">
          <mxGeometry x="265" y="280" width="640" height="590" as="geometry" />
        </mxCell>
        <mxCell id="pViukagDU9DolODw0ecY-9" value="&lt;font size=&quot;1&quot;&gt;&lt;b style=&quot;font-size: 12px;&quot;&gt;Internet Gateway&lt;/b&gt;&lt;/font&gt;" style="sketch=0;outlineConnect=0;fontColor=#232F3E;gradientColor=none;fillColor=#8C4FFF;strokeColor=none;dashed=0;verticalLabelPosition=bottom;verticalAlign=top;align=center;html=1;fontSize=12;fontStyle=0;aspect=fixed;pointerEvents=1;shape=mxgraph.aws4.internet_gateway;" parent="1" vertex="1">
          <mxGeometry x="555" y="190" width="60" height="60" as="geometry" />
        </mxCell>
        <mxCell id="pViukagDU9DolODw0ecY-17" style="edgeStyle=orthogonalEdgeStyle;rounded=0;orthogonalLoop=1;jettySize=auto;html=1;startArrow=classic;startFill=1;" parent="1" source="pViukagDU9DolODw0ecY-11" target="pViukagDU9DolODw0ecY-9" edge="1">
          <mxGeometry relative="1" as="geometry" />
        </mxCell>
        <mxCell id="pViukagDU9DolODw0ecY-4" value="&lt;b&gt;Region (us-east-1)&lt;/b&gt;" style="points=[[0,0],[0.25,0],[0.5,0],[0.75,0],[1,0],[1,0.25],[1,0.5],[1,0.75],[1,1],[0.75,1],[0.5,1],[0.25,1],[0,1],[0,0.75],[0,0.5],[0,0.25]];outlineConnect=0;gradientColor=none;html=1;whiteSpace=wrap;fontSize=12;fontStyle=0;container=1;pointerEvents=0;collapsible=0;recursiveResize=0;shape=mxgraph.aws4.group;grIcon=mxgraph.aws4.group_region;strokeColor=#00A4A6;fillColor=none;verticalAlign=top;align=left;spacingLeft=30;fontColor=#147EBA;dashed=1;" parent="1" vertex="1">
          <mxGeometry x="235" y="250" width="700" height="740" as="geometry" />
        </mxCell>
        <mxCell id="pViukagDU9DolODw0ecY-20" value="&lt;b&gt;Security group&lt;/b&gt;" style="fillColor=none;strokeColor=#DD3522;verticalAlign=top;fontStyle=0;fontColor=#DD3522;whiteSpace=wrap;html=1;" parent="pViukagDU9DolODw0ecY-4" vertex="1">
          <mxGeometry x="90" y="200" width="520" height="350" as="geometry" />
        </mxCell>
        <mxCell id="pViukagDU9DolODw0ecY-5" value="&lt;b&gt;Availability Zone (us-east-1b)&lt;/b&gt;" style="fillColor=none;strokeColor=#147EBA;dashed=1;verticalAlign=top;fontStyle=0;fontColor=#147EBA;whiteSpace=wrap;html=1;" parent="pViukagDU9DolODw0ecY-4" vertex="1">
          <mxGeometry x="370" y="156" width="270" height="430" as="geometry" />
        </mxCell>
        <mxCell id="pViukagDU9DolODw0ecY-3" value="&lt;b&gt;Availability Zone (us-east-1a)&lt;/b&gt;" style="fillColor=none;strokeColor=#147EBA;dashed=1;verticalAlign=top;fontStyle=0;fontColor=#147EBA;whiteSpace=wrap;html=1;" parent="pViukagDU9DolODw0ecY-4" vertex="1">
          <mxGeometry x="60" y="156" width="270" height="430" as="geometry" />
        </mxCell>
        <mxCell id="pViukagDU9DolODw0ecY-7" value="&lt;b&gt;Public subnet (10.0.1.0/24)&lt;/b&gt;" style="points=[[0,0],[0.25,0],[0.5,0],[0.75,0],[1,0],[1,0.25],[1,0.5],[1,0.75],[1,1],[0.75,1],[0.5,1],[0.25,1],[0,1],[0,0.75],[0,0.5],[0,0.25]];outlineConnect=0;gradientColor=none;html=1;whiteSpace=wrap;fontSize=12;fontStyle=0;container=1;pointerEvents=0;collapsible=0;recursiveResize=0;shape=mxgraph.aws4.group;grIcon=mxgraph.aws4.group_security_group;grStroke=0;strokeColor=#7AA116;fillColor=#F2F6E8;verticalAlign=top;align=left;spacingLeft=30;fontColor=#248814;dashed=0;" parent="pViukagDU9DolODw0ecY-4" vertex="1">
          <mxGeometry x="135" y="380" width="130" height="130" as="geometry" />
        </mxCell>
        <mxCell id="pViukagDU9DolODw0ecY-25" value="&lt;font style=&quot;font-size: 10px;&quot;&gt;&lt;i style=&quot;&quot;&gt;Tasks&lt;/i&gt;&lt;/font&gt;" style="sketch=0;outlineConnect=0;fontColor=#232F3E;gradientColor=none;fillColor=#ED7100;strokeColor=none;dashed=0;verticalLabelPosition=bottom;verticalAlign=top;align=center;html=1;fontSize=12;fontStyle=0;aspect=fixed;pointerEvents=1;shape=mxgraph.aws4.ecs_task;" parent="pViukagDU9DolODw0ecY-7" vertex="1">
          <mxGeometry x="72.5" y="50" width="37" height="48" as="geometry" />
        </mxCell>
        <mxCell id="pViukagDU9DolODw0ecY-28" value="&lt;font style=&quot;font-size: 10px;&quot;&gt;&lt;i style=&quot;&quot;&gt;Services&lt;/i&gt;&lt;/font&gt;" style="sketch=0;outlineConnect=0;fontColor=#232F3E;gradientColor=none;fillColor=#ED7100;strokeColor=none;dashed=0;verticalLabelPosition=bottom;verticalAlign=top;align=center;html=1;fontSize=12;fontStyle=0;aspect=fixed;pointerEvents=1;shape=mxgraph.aws4.ecs_service;" parent="pViukagDU9DolODw0ecY-7" vertex="1">
          <mxGeometry x="18" y="50" width="39" height="48" as="geometry" />
        </mxCell>
        <mxCell id="pViukagDU9DolODw0ecY-8" value="&lt;b&gt;Public subnet (10.0.2.0/24)&lt;/b&gt;" style="points=[[0,0],[0.25,0],[0.5,0],[0.75,0],[1,0],[1,0.25],[1,0.5],[1,0.75],[1,1],[0.75,1],[0.5,1],[0.25,1],[0,1],[0,0.75],[0,0.5],[0,0.25]];outlineConnect=0;gradientColor=none;html=1;whiteSpace=wrap;fontSize=12;fontStyle=0;container=1;pointerEvents=0;collapsible=0;recursiveResize=0;shape=mxgraph.aws4.group;grIcon=mxgraph.aws4.group_security_group;grStroke=0;strokeColor=#7AA116;fillColor=#F2F6E8;verticalAlign=top;align=left;spacingLeft=30;fontColor=#248814;dashed=0;" parent="pViukagDU9DolODw0ecY-4" vertex="1">
          <mxGeometry x="435" y="380" width="130" height="130" as="geometry" />
        </mxCell>
        <mxCell id="pViukagDU9DolODw0ecY-26" value="&lt;font style=&quot;font-size: 10px;&quot;&gt;&lt;i&gt;Tasks&lt;/i&gt;&lt;/font&gt;" style="sketch=0;outlineConnect=0;fontColor=#232F3E;gradientColor=none;fillColor=#ED7100;strokeColor=none;dashed=0;verticalLabelPosition=bottom;verticalAlign=top;align=center;html=1;fontSize=12;fontStyle=0;aspect=fixed;pointerEvents=1;shape=mxgraph.aws4.ecs_task;" parent="pViukagDU9DolODw0ecY-8" vertex="1">
          <mxGeometry x="74.5" y="50" width="37" height="48" as="geometry" />
        </mxCell>
        <mxCell id="pViukagDU9DolODw0ecY-11" value="&lt;b&gt;Route table&lt;/b&gt;" style="sketch=0;outlineConnect=0;fontColor=#232F3E;gradientColor=none;fillColor=#8C4FFF;strokeColor=none;dashed=0;verticalLabelPosition=bottom;verticalAlign=top;align=center;html=1;fontSize=12;fontStyle=0;aspect=fixed;pointerEvents=1;shape=mxgraph.aws4.route_table;" parent="pViukagDU9DolODw0ecY-4" vertex="1">
          <mxGeometry x="326.39" y="72" width="47.21" height="46" as="geometry" />
        </mxCell>
        <mxCell id="pViukagDU9DolODw0ecY-27" value="&lt;font style=&quot;font-size: 10px;&quot;&gt;&lt;i&gt;Services&lt;/i&gt;&lt;/font&gt;" style="sketch=0;outlineConnect=0;fontColor=#232F3E;gradientColor=none;fillColor=#ED7100;strokeColor=none;dashed=0;verticalLabelPosition=bottom;verticalAlign=top;align=center;html=1;fontSize=12;fontStyle=0;aspect=fixed;pointerEvents=1;shape=mxgraph.aws4.ecs_service;" parent="pViukagDU9DolODw0ecY-4" vertex="1">
          <mxGeometry x="454" y="430" width="39" height="48" as="geometry" />
        </mxCell>
        <mxCell id="pViukagDU9DolODw0ecY-29" value="&lt;b&gt;Cluster do ECS&lt;/b&gt;" style="sketch=0;points=[[0,0,0],[0.25,0,0],[0.5,0,0],[0.75,0,0],[1,0,0],[0,1,0],[0.25,1,0],[0.5,1,0],[0.75,1,0],[1,1,0],[0,0.25,0],[0,0.5,0],[0,0.75,0],[1,0.25,0],[1,0.5,0],[1,0.75,0]];outlineConnect=0;fontColor=#232F3E;fillColor=#ED7100;strokeColor=#ffffff;dashed=0;verticalLabelPosition=bottom;verticalAlign=top;align=center;html=1;fontSize=12;fontStyle=0;aspect=fixed;shape=mxgraph.aws4.resourceIcon;resIcon=mxgraph.aws4.ecs;" parent="pViukagDU9DolODw0ecY-4" vertex="1">
          <mxGeometry x="321" y="644" width="58" height="58" as="geometry" />
        </mxCell>
        <mxCell id="pViukagDU9DolODw0ecY-33" style="edgeStyle=orthogonalEdgeStyle;rounded=0;orthogonalLoop=1;jettySize=auto;html=1;entryX=1;entryY=0.5;entryDx=0;entryDy=0;entryPerimeter=0;" parent="pViukagDU9DolODw0ecY-4" source="pViukagDU9DolODw0ecY-8" target="pViukagDU9DolODw0ecY-29" edge="1">
          <mxGeometry relative="1" as="geometry">
            <Array as="points">
              <mxPoint x="505" y="673" />
            </Array>
          </mxGeometry>
        </mxCell>
        <mxCell id="pViukagDU9DolODw0ecY-34" style="edgeStyle=orthogonalEdgeStyle;rounded=0;orthogonalLoop=1;jettySize=auto;html=1;entryX=0;entryY=0.5;entryDx=0;entryDy=0;entryPerimeter=0;" parent="pViukagDU9DolODw0ecY-4" source="pViukagDU9DolODw0ecY-7" target="pViukagDU9DolODw0ecY-29" edge="1">
          <mxGeometry relative="1" as="geometry">
            <Array as="points">
              <mxPoint x="200" y="673" />
            </Array>
          </mxGeometry>
        </mxCell>
        <mxCell id="4uqwcMLx68ukezupchwL-4" style="edgeStyle=orthogonalEdgeStyle;rounded=0;orthogonalLoop=1;jettySize=auto;html=1;exitX=0.5;exitY=1;exitDx=0;exitDy=0;" edge="1" parent="1" source="pViukagDU9DolODw0ecY-1" target="pViukagDU9DolODw0ecY-1">
          <mxGeometry relative="1" as="geometry" />
        </mxCell>
        <mxCell id="4uqwcMLx68ukezupchwL-5" style="edgeStyle=orthogonalEdgeStyle;rounded=0;orthogonalLoop=1;jettySize=auto;html=1;" edge="1" parent="1" source="4uqwcMLx68ukezupchwL-3" target="pViukagDU9DolODw0ecY-29">
          <mxGeometry relative="1" as="geometry" />
        </mxCell>
        <mxCell id="4uqwcMLx68ukezupchwL-7" style="edgeStyle=orthogonalEdgeStyle;rounded=0;orthogonalLoop=1;jettySize=auto;html=1;" edge="1" parent="1" source="4uqwcMLx68ukezupchwL-6" target="pViukagDU9DolODw0ecY-9">
          <mxGeometry relative="1" as="geometry" />
        </mxCell>
        <mxCell id="4uqwcMLx68ukezupchwL-6" value="&lt;b&gt;UsuÃ¡rios&lt;/b&gt;" style="sketch=0;outlineConnect=0;fontColor=#232F3E;gradientColor=none;fillColor=#232F3D;strokeColor=none;dashed=0;verticalLabelPosition=bottom;verticalAlign=top;align=center;html=1;fontSize=12;fontStyle=0;aspect=fixed;pointerEvents=1;shape=mxgraph.aws4.users;" vertex="1" parent="1">
          <mxGeometry x="556" y="70" width="58" height="58" as="geometry" />
        </mxCell>
        <mxCell id="4uqwcMLx68ukezupchwL-8" value="&lt;b&gt;Application&lt;/b&gt;&lt;div&gt;&lt;b&gt;Load Balancer&lt;/b&gt;&lt;/div&gt;" style="sketch=0;outlineConnect=0;fontColor=#232F3E;gradientColor=none;fillColor=#8C4FFF;strokeColor=none;dashed=0;verticalLabelPosition=bottom;verticalAlign=top;align=center;html=1;fontSize=12;fontStyle=0;aspect=fixed;pointerEvents=1;shape=mxgraph.aws4.application_load_balancer;" vertex="1" parent="1">
          <mxGeometry x="556" y="498" width="58" height="58" as="geometry" />
        </mxCell>
        <mxCell id="4uqwcMLx68ukezupchwL-9" style="edgeStyle=orthogonalEdgeStyle;rounded=0;orthogonalLoop=1;jettySize=auto;html=1;" edge="1" parent="1" source="pViukagDU9DolODw0ecY-11" target="4uqwcMLx68ukezupchwL-8">
          <mxGeometry relative="1" as="geometry" />
        </mxCell>
        <mxCell id="pViukagDU9DolODw0ecY-18" style="edgeStyle=orthogonalEdgeStyle;rounded=0;orthogonalLoop=1;jettySize=auto;html=1;" parent="1" source="4uqwcMLx68ukezupchwL-8" target="pViukagDU9DolODw0ecY-7" edge="1">
          <mxGeometry relative="1" as="geometry">
            <mxPoint x="435" y="555.9993409240699" as="sourcePoint" />
          </mxGeometry>
        </mxCell>
        <mxCell id="pViukagDU9DolODw0ecY-19" style="edgeStyle=orthogonalEdgeStyle;rounded=0;orthogonalLoop=1;jettySize=auto;html=1;" parent="1" source="4uqwcMLx68ukezupchwL-8" target="pViukagDU9DolODw0ecY-8" edge="1">
          <mxGeometry relative="1" as="geometry">
            <mxPoint x="735" y="555.9993409240699" as="sourcePoint" />
          </mxGeometry>
        </mxCell>
      </root>
    </mxGraphModel>
  </diagram>
</mxfile>
